Source: Beneath The Darkness 2011 BRRip

COVER:
 
http://images.net63.net/short_url/?IVPDK

Screens:
 
http://images.net63.net/short_url/?MAMAS
 
http://images.net63.net/short_url/?OGRBQ
 
http://images.net63.net/short_url/?IUUXV
 
http://images.net63.net/short_url/?RFZGD

Plot:
After watching their best friend get murdered, a group of teens struggle to expose a local hero as the vicious killer and keep from becoming his next victims

Format                           : AVI
Format/Info                      : Audio Video Interleave
File size                        : 921 MiB
Duration                         : 1h 35mn
Overall bit rate                 : 1 344 Kbps
Writing library                  : VirtualDub build 33848/release

Video
ID                               : 0
Format                           : MPEG-4 Visual
Format profile                   : Advanced Simple@L5
Format settings, BVOP            : Yes
Format settings, QPel            : No
Format settings, GMC             : No warppoints
Format settings, Matrix          : Default (H.263)
Muxing mode                      : Packed bitstream
Codec ID                         : XVID
Codec ID/Hint                    : XviD
Duration                         : 1h 35mn
Bit rate                         : 1 142 Kbps
Width                            : 720 pixels
Height                           : 304 pixels
Display aspect ratio             : 2.35:1
Frame rate                       : 23.976 fps
Color space                      : YUV
Chroma subsampling               : 4:2:0
Bit depth                        : 8 bits
Scan type                        : Progressive
Bits/(Pixel*Frame)               : 0.218
Stream size                      : 783 MiB (85%)
Writing library                  : XviD 1.2.1 (UTC 2008-12-04)

Audio
ID                               : 1
Format                           : MPEG Audio
Format version                   : Version 1
Format profile                   : Layer 3
Mode                             : Joint stereo
Mode extension                   : MS Stereo
Codec ID                         : 55
Codec ID/Hint                    : MP3
Duration                         : 1h 35mn
Bit rate mode                    : Constant
Bit rate                         : 192 Kbps
Channel(s)                       : 2 channels
Sampling rate                    : 48.0 KHz
Video delay                      : 16ms
Stream size                      : 132 MiB (14%)
Alignment                        : Split accross interleaves
Interleave, duration             : 42 ms (1.00 video frame)
Interleave, preload duration     : 500 ms
Writing library                  : LAME3.98.2

Enjoy!
NoZGT
